<svg id="Calque_1" data-name="Calque 1" xmlns="http://www.w3.org/2000/svg" viewBox="0 0 404.79 98.17"><defs><style>.cls-1{fill:#09afea;}</style></defs><title>nom_romeal</title><path class="cls-1" d="M11.41,89.08H0V13.94H18.48c7.68,0,11.41,3.13,11.41,11.61V38.88c0,6.26-2.93,8.79-4.95,9.6,2.52,1.11,4.95,3,4.95,8.18V83A11.44,11.44,0,0,0,31,88.57v.5H19.7c-.51-.81-1.11-2.12-1.11-6.16V60.3c0-3.33-.61-4.75-4.24-4.75H11.41Zm0-44.24h3c3.13,0,4.14-2,4.14-5.35V29c0-3.23-.61-4.85-4.14-4.85h-3Z"/><path class="cls-1" d="M65.14,72.31C65.14,82.82,61.61,90,50.6,90H48.68c-10.91,0-14.75-7.17-14.75-17.68V30.5c0-10.5,3.84-17.27,14.65-17.27H50.5c11.11,0,14.65,6.87,14.65,17.17ZM53.53,29.9q0-5.76-3.94-5.76c-2.93,0-4,1.82-4,5.76V73.12c0,3.23.91,5.76,4.14,5.76s3.84-2.52,3.84-5.76Z"/><polygon class="cls-1" points="69.49 13.94 84.13 13.94 89.59 53.63 95.14 13.94 108.78 13.94 108.78 89.08 98.07 89.08 98.07 40.5 91.2 89.08 86.66 89.08 79.69 40.5 79.69 89.08 69.49 89.08 69.49 13.94"/><path class="cls-1" d="M139.38,13.94V24.85H124.83v19.7h11.41V56H124.83V77.67H140V89.08H113.42V13.94ZM126.25,0h9.49L131.3,11H122Z"/><path class="cls-1" d="M161.8,74.94h-8.38L152,89.08H141.8L151,13.94h13.53l9.8,75.14h-11Zm-7.17-11.21h6l-3-27.77Z"/><polygon class="cls-1" points="187.96 13.94 187.96 77.47 201.89 77.47 201.89 89.08 176.54 89.08 176.54 13.94 187.96 13.94"/><path class="cls-1" d="M241.18,28.08V40.9H230.27V27.17c0-7.17,2.93-13.94,12.42-13.94H245c8.48,0,13.94,3.84,13.94,13.94v3.74c0,8.89-.4,12.22-6.66,21.71-2,3.13-4.95,7.07-7.27,10.3-6.77,9.7-7.17,12.32-7.17,15.45h10.1V63.93h11.51V89.08H228.35V83.42c0-9.8,1.52-14.74,8.79-27.37l6.57-11.62c3.23-5.65,3.23-7.78,3.23-11.51V28.08c0-2.83-1-3.94-2.93-3.94-2.12,0-2.83,1.11-2.83,3.94"/><path class="cls-1" d="M275,28.08V40.9H264.1V27.17c0-7.17,2.93-13.94,12.42-13.94h2.32c8.48,0,13.94,3.84,13.94,13.94v3.74c0,8.89-.4,12.22-6.67,21.71-2,3.13-4.95,7.07-7.27,10.3-6.77,9.7-7.17,12.32-7.17,15.45h10.1V63.93h11.51V89.08H262.19V83.42c0-9.8,1.52-14.74,8.79-27.37l6.57-11.62c3.23-5.65,3.23-7.78,3.23-11.51V28.08c0-2.83-1-3.94-2.93-3.94-2.12,0-2.83,1.11-2.83,3.94"/><path class="cls-1" d="M324.9,74.94h-8.38l-1.41,14.14h-10.2l9.19-75.14h13.53l9.8,75.14h-11Zm-7.17-11.21h6l-3-27.77Z"/><polygon class="cls-1" points="349.95 13.94 359.75 54.24 359.75 13.94 370.15 13.94 370.15 89.08 360.86 89.08 349.95 45.85 349.95 89.08 339.65 89.08 339.65 13.94 349.95 13.94"/><path class="cls-1" d="M390.65,13.23c9.39,0,13,4.14,13,13V38.58h-11V27.77c0-2.52-.51-4.44-3.23-4.44s-3.33,1.72-3.33,5.25V30c0,4.24.81,6.56,4.65,11.51L398,50.9c5.15,6.67,6.77,10.4,6.77,19v2.42c0,11-4.65,17.57-14.75,17.57h-2.22c-9.19,0-13.94-4.95-13.94-14.24v-15H385.2V73.73c0,3.53,1.21,5.25,3.74,5.25,2.73,0,3.74-1.72,3.74-6.46V70.8c0-5.45-.51-7.17-4.65-12.62l-7.27-9.29c-4.85-6.26-6.26-11.11-6.26-18.58V27.88c0-10.1,5.05-14.65,14-14.65Z"/></svg>