<svg xmlns="http://www.w3.org/2000/svg" height="187.851" width="114.038"><path d="M56.482 145.129c-14.9 0-21.528-2.524-24.815-5.033.2 1.866.719 5.339 1.834 6.9a4.87 4.87 0 001.5 1.287.486.486 0 01.213.124c5.024 2.781 17.218 3.025 21.266 3.025h1.075c4.047 0 16.242-.244 21.266-3.025a.488.488 0 01.212-.124 4.87 4.87 0 001.5-1.287c1.116-1.563 1.631-5.034 1.834-6.9-3.287 2.509-9.914 5.033-24.814 5.033z" fill="#c4d7e9"/><path d="M48.744 66.413l-1.853-17.64a13.048 13.048 0 013.257-2.345c3.976-2 8.974-1.946 14.67.119l-1.806 27.334c-2.1-1.234-4.4-2.339-6.673-3.433a69.075 69.075 0 01-7.595-4.035zm8.275-64.915A51.88 51.88 0 0015.851 20.94 63.587 63.587 0 001.498 60.709c0 17.193 8.065 28.373 15.182 38.237 4.026 5.58 7.828 10.852 9.594 16.513.785 2.518 1.09 6.386 1.385 10.127.34 4.316.692 8.779 1.771 10.487a12.019 12.019 0 001.862 2.386.507.507 0 01.187.175c2.512 2.327 7.745 4.911 20.437 5.411v-37.91l-.766-7.3c-4.581-.846-8.905-2.73-11.069-5.57a.5.5 0 11.791-.6c1.936 2.54 5.906 4.293 10.168 5.127l-3.239-30.828c-3.829-2.6-6.467-5.851-5.856-10.691a14.5 14.5 0 013.907-7.866l-1.017-9.681a.5.5 0 01.99-.1l.936 8.916a13.889 13.889 0 012.939-2c3.084-1.554 8.017-2.562 15.186-.031l.454-6.867a.5.5 0 11.993.065l-.473 7.163a43.565 43.565 0 015.6 2.673.5.5 0 11-.488.867 43.052 43.052 0 00-5.185-2.489l-1.821 27.543c4.92 3.082 8.516 7.023 7.744 13.492-.817 6.846-5.491 9.583-9.342 10.674l-.468 7.079v38.345c12.854-.479 18.13-3.081 20.656-5.421a.494.494 0 01.183-.171 12.037 12.037 0 001.864-2.389c1.079-1.708 1.431-6.17 1.772-10.485.294-3.742.6-7.611 1.385-10.129 1.765-5.662 5.568-10.933 9.594-16.514 7.116-9.864 15.181-21.044 15.181-38.236a63.594 63.594 0 00-14.353-39.769A51.881 51.881 0 0057.019 1.495zm-.537 142.636h1.075c1.173 0 2.283-.019 3.353-.049v-38.409l.45-6.8a22.725 22.725 0 01-4.749.476 30.208 30.208 0 01-4.443-.341l.741 7.048V144.082c1.137.032 2.321.052 3.573.052zm4.946-46.285l1.509-22.845c-2.184-1.327-4.619-2.5-7.03-3.659a76.694 76.694 0 01-7.032-3.684l3.184 30.311a25.306 25.306 0 009.369-.123zm-18.5-41.451c-.515 4.084 1.524 6.926 4.733 9.271l-1.674-15.934a13.321 13.321 0 00-3.055 6.66zm27.794 31.44c.681-5.713-2.438-9.355-6.832-12.23l-1.452 21.964c3.491-1.077 7.56-3.632 8.288-9.734z" fill="#fdbe2a"/><path d="M56.339 70.448c2.274 1.094 4.57 2.2 6.673 3.433l1.806-27.334c-5.7-2.065-10.694-2.122-14.67-.119a13.048 13.048 0 00-3.257 2.345l1.853 17.64a69.075 69.075 0 007.595 4.035z" fill="#fdcb55"/><path d="M99.128 48.331c0-22.545-19.114-40.821-42.693-40.821S13.741 25.786 13.741 48.331c0 20.482 15.777 37.437 36.344 40.37l-2.284-21.737c-3.829-2.6-6.467-5.851-5.856-10.691a14.5 14.5 0 013.907-7.866l-1.017-9.681a.5.5 0 01.99-.1l.936 8.916a13.889 13.889 0 012.939-2c3.084-1.554 8.017-2.562 15.186-.031l.454-6.867a.5.5 0 11.993.065l-.473 7.163a43.565 43.565 0 015.6 2.673.5.5 0 11-.488.867 43.052 43.052 0 00-5.185-2.489l-1.821 27.543c4.515 2.829 7.9 6.386 7.837 11.951 15.985-5.904 27.325-20.722 27.325-38.086z" fill="#fdcb55"/><path d="M62.937 75.004c-2.184-1.327-4.619-2.5-7.03-3.659a76.694 76.694 0 01-7.032-3.684l2.223 21.163a43.512 43.512 0 0010.928-.031zM63.894 75.608l-.863 13.058a43.938 43.938 0 007.778-1.892c.196-5.108-2.8-8.474-6.915-11.166zM42.932 56.395c-.515 4.084 1.524 6.926 4.733 9.271l-1.674-15.934a13.321 13.321 0 00-3.059 6.663z" fill="#fdcb55"/><path d="M57.559 152.427h-1.075c-12.66 0-18.721-1.558-21.62-3.109-.539.305-1.932 1.224-1.932 2.611 0 .354.2 2.211 4.082 3.969 4.152 1.879 10.7 2.831 19.47 2.831h1.075c8.767 0 15.317-.952 19.469-2.831 3.885-1.758 4.082-3.615 4.082-3.969 0-1.386-1.391-2.305-1.932-2.61-2.9 1.55-8.962 3.108-21.619 3.108z" fill="#d8e9f7"/><path d="M56.482 148.12c-14.138 0-20.825-2.272-24.28-4.648a10.257 10.257 0 001.3 3.524 4.87 4.87 0 001.5 1.287.486.486 0 01.213.124c5.024 2.781 17.218 3.025 21.266 3.025h1.075c4.047 0 16.242-.244 21.266-3.025a.488.488 0 01.212-.124 4.87 4.87 0 001.5-1.287 10.282 10.282 0 001.3-3.524c-3.456 2.376-10.143 4.648-24.28 4.648zM57.559 166.416h-1.075c-12.5 0-18.64-1.922-21.653-3.866-.557.318-1.9 1.224-1.9 2.588 0 .354.2 2.21 4.082 3.968 4.152 1.879 10.7 2.832 19.47 2.832h1.075c8.767 0 15.317-.953 19.469-2.832 3.885-1.758 4.082-3.614 4.082-3.968 0-1.371-1.341-2.273-1.9-2.589-3.011 1.946-9.15 3.867-21.65 3.867z" fill="#d8e9f7"/><path d="M56.482 178.795c-9.522 0-16.074-1.681-19.709-3.322 4.5 4.023 14.212 10.877 19.709 10.877h1.075c5.5 0 15.212-6.854 19.708-10.877-3.634 1.641-10.186 3.322-19.708 3.322z" fill="#c4d7e9"/><path d="M57.559 172.933h-1.075c-13.363 0-19.456-2.195-22.232-4.266a10.442 10.442 0 00.089 4.05c.514 1.226 8.152 5.086 22.143 5.086h1.075c13.991 0 21.629-3.86 22.142-5.086a10.439 10.439 0 00.09-4.05c-2.778 2.071-8.872 4.266-22.232 4.266zM57.559 159.724h-1.075c-12.353 0-18.494-1.876-21.545-3.8-.58.34-2.007 1.315-2.007 2.692 0 .979 1.069 2.606 4.082 3.969 4.152 1.879 10.7 2.831 19.47 2.831h1.075c8.767 0 15.317-.952 19.469-2.831 3.013-1.363 4.082-2.99 4.082-3.969 0-1.377-1.427-2.352-2.007-2.692-3.053 1.924-9.193 3.8-21.544 3.8z" fill="#d8e9f7"/><path d="M61.905 136.584v7.47c12.854-.479 18.13-3.081 20.656-5.421a.494.494 0 01.183-.171 12.037 12.037 0 001.864-2.389c1.079-1.708 1.431-6.17 1.772-10.485.294-3.742.6-7.611 1.385-10.129 1.765-5.662 5.568-10.933 9.594-16.514 7.116-9.864 15.181-21.044 15.181-38.236 0-.306-.006-.611-.01-.917-6.2 27.257-28.532 42.694-32 54.985-1.546 5.484-1.486 19.247-18.625 21.807zM57.559 144.134c1.173 0 2.283-.019 3.353-.049v-7.368a40.906 40.906 0 01-4.428.279 42.173 42.173 0 01-3.571-.187v7.271c1.135.034 2.319.054 3.571.054zM16.68 98.946c4.026 5.58 7.828 10.852 9.594 16.513.785 2.518 1.09 6.386 1.385 10.127.34 4.316.692 8.779 1.771 10.487a12.019 12.019 0 001.862 2.386.507.507 0 01.187.175c2.512 2.327 7.745 4.911 20.437 5.411v-7.344c-18-2.223-17.911-16.35-19.483-21.924-3.273-11.6-23.36-26.014-30.814-50.527 1.014 15.217 8.446 25.526 15.061 34.696z" fill="#e8a91b"/><g fill="none" stroke="#3e4147" stroke-linecap="round" stroke-linejoin="round" stroke-width="2"><path d="M57.559 144.631c21.146 0 25.375-4.975 27.471-8.292s1.518-15.3 3.212-20.732c4.81-15.425 24.8-27.7 24.8-54.9 0-27.284-19.905-59.709-56.019-59.709S1.004 33.423 1.004 60.707c0 27.2 19.989 39.473 24.8 54.9 1.7 5.432 1.116 17.415 3.212 20.732s6.325 8.292 27.472 8.292z"/><path d="M82.981 138.885s-.38 6.078-2.039 8.4-8.127 4.644-23.385 4.644h-1.075c-15.259 0-21.727-2.322-23.386-4.644s-2.039-8.4-2.039-8.4"/><path d="M79.172 148.755s2.434 1.112 2.434 3.174-3.649 7.3-24.049 7.3h-1.075c-20.4 0-24.049-5.236-24.049-7.3s2.433-3.174 2.433-3.174"/><path d="M79.074 155.347s2.532 1.212 2.532 3.273-3.649 7.3-24.049 7.3h-1.075c-20.4 0-24.049-5.236-24.049-7.3s2.532-3.273 2.532-3.273"/><path d="M79.176 161.97s2.43 1.106 2.43 3.168-3.649 7.3-24.049 7.3h-1.075c-20.4 0-24.049-5.236-24.049-7.3s2.429-3.168 2.429-3.168"/><path d="M80.159 167.724s.625 3.693 0 5.186-8.338 5.39-22.6 5.39h-1.075c-14.264 0-21.976-3.9-22.6-5.39s0-5.186 0-5.186"/><path d="M80.159 172.91c-.46 2.322-15.553 13.941-22.6 13.941h-1.075c-7.049 0-22.142-11.619-22.6-13.941M71.22 48.977c-19.787-11.12-27.977.979-28.781 7.359-1.963 15.557 30.907 13.736 28.781 31.561-1.872 15.69-25.511 11.937-30.744 5.069"/><path d="M45.33 38.674l7.084 67.435v37.986M65.837 38.674l-4.429 67v38.421"/></g></svg>
